<svg width="588" height="150" viewBox="0 0 588 150" fill="none" xmlns="http://www.w3.org/2000/svg">
<path d="M83.0982 135.198H0L74.6295 7.00005L145.157 135.198H103.607L74.6295 17.0381L48.8265 106.303L83.1422 106.258L83.0982 135.198Z" fill="#136534"/>
<path d="M163.736 60V14.56H172.568V52.256H195.736V60H163.736ZM213.463 14.56H222.423L239.127 60H230.039L225.815 48.672H209.943L205.783 60H196.695L213.463 14.56ZM224.215 42.464L217.943 23.712L211.415 42.464H224.215ZM261.563 60.32C257.936 60.32 254.843 59.7227 252.283 58.528C249.765 57.2907 247.717 55.6053 246.139 53.472C244.603 51.3387 243.472 48.928 242.747 46.24C242.021 43.5093 241.659 40.672 241.659 37.728V14.56H250.491V37.728C250.491 40.2453 250.832 42.6347 251.515 44.896C252.197 47.1573 253.349 48.992 254.971 50.4C256.592 51.808 258.768 52.512 261.499 52.512C264.315 52.512 266.533 51.808 268.155 50.4C269.776 48.9493 270.928 47.0933 271.611 44.832C272.293 42.5707 272.635 40.2027 272.635 37.728V14.56H281.403V37.728C281.403 40.8427 281.019 43.7653 280.251 46.496C279.525 49.2267 278.352 51.6373 276.731 53.728C275.152 55.776 273.104 57.3973 270.587 58.592C268.069 59.744 265.061 60.32 261.563 60.32ZM324.283 22.304H309.755V60H300.987V22.304H286.459V14.56H324.283V22.304ZM361.476 52.256V60H329.924V14.56H360.9V22.304H338.756V33.248H357.892V40.416H338.756V52.256H361.476ZM377.193 30.816V60H368.361V14.56H375.401L398.889 44.512V14.624H407.721V60H400.361L377.193 30.816ZM453.782 48.288C453.782 50.848 453.12 53.0027 451.798 54.752C450.475 56.4587 448.683 57.76 446.422 58.656C444.203 59.552 441.771 60 439.126 60H417.174V14.56H441.494C443.627 14.56 445.462 15.136 446.998 16.288C448.534 17.3973 449.728 18.848 450.582 20.64C451.435 22.432 451.862 24.2667 451.862 26.144C451.862 28.3627 451.307 30.4533 450.198 32.416C449.088 34.336 447.467 35.7653 445.333 36.704C447.936 37.472 449.984 38.8587 451.478 40.864C453.014 42.8693 453.782 45.344 453.782 48.288ZM426.006 22.112V33.568H437.782C439.232 33.568 440.491 33.056 441.558 32.032C442.624 31.008 443.158 29.6 443.158 27.808C443.158 26.1013 442.667 24.736 441.686 23.712C440.747 22.6453 439.574 22.112 438.166 22.112H426.006ZM444.886 46.624C444.886 44.96 444.374 43.5307 443.35 42.336C442.326 41.1413 441.067 40.544 439.574 40.544H426.006V52.512H439.126C440.747 52.512 442.112 51.936 443.222 50.784C444.331 49.632 444.886 48.2453 444.886 46.624ZM472.026 14.56H480.986L497.69 60H488.602L484.378 48.672H468.506L464.345 60H455.258L472.026 14.56ZM482.778 42.464L476.506 23.712L469.978 42.464H482.778ZM498.172 36.96C498.172 34.1867 498.662 31.456 499.644 28.768C500.668 26.08 502.14 23.648 504.06 21.472C505.98 19.296 508.326 17.568 511.1 16.288C513.873 14.9653 517.03 14.304 520.572 14.304C524.71 14.304 528.316 15.2213 531.388 17.056C534.46 18.8907 536.742 21.28 538.236 24.224L531.451 28.896C530.684 27.1893 529.681 25.8453 528.444 24.864C527.206 23.8827 525.862 23.1787 524.412 22.752C523.004 22.3253 521.638 22.112 520.316 22.112C518.097 22.112 516.156 22.56 514.492 23.456C512.87 24.352 511.505 25.5253 510.396 26.976C509.286 28.4267 508.454 30.048 507.9 31.84C507.388 33.632 507.132 35.424 507.132 37.216C507.132 39.904 507.686 42.4213 508.796 44.768C509.905 47.072 511.462 48.9493 513.468 50.4C515.473 51.8507 517.798 52.576 520.444 52.576C521.809 52.576 523.217 52.3413 524.668 51.872C526.161 51.4027 527.526 50.656 528.764 49.632C530.001 48.608 530.961 47.2853 531.644 45.664L538.876 49.824C537.937 52.0853 536.465 54.0053 534.46 55.584C532.454 57.12 530.193 58.3147 527.676 59.168C525.158 59.9787 522.662 60.384 520.188 60.384C516.945 60.384 513.98 59.7227 511.292 58.4C508.646 57.0347 506.342 55.2427 504.38 53.024C502.417 50.7627 500.881 48.2453 499.772 45.472C498.705 42.656 498.172 39.8187 498.172 36.96ZM583.007 14.56V60H574.239V40.608H553.631V60H544.799V14.56H553.631V32.928H574.239V14.56H583.007ZM163.736 135V89.56H183.832C185.923 89.56 187.843 89.9867 189.592 90.84C191.384 91.6933 192.92 92.8453 194.2 94.296C195.523 95.7467 196.525 97.368 197.208 99.16C197.933 100.952 198.296 102.787 198.296 104.664C198.296 107.565 197.549 110.232 196.056 112.664C194.605 115.096 192.621 116.845 190.104 117.912L200.472 135H190.744L181.4 119.768H172.568V135H163.736ZM172.568 112.024H183.64C185.304 112.024 186.669 111.32 187.736 109.912C188.845 108.461 189.4 106.712 189.4 104.664C189.4 103.256 189.101 101.997 188.504 100.888C187.907 99.7787 187.139 98.904 186.2 98.264C185.304 97.624 184.323 97.304 183.256 97.304H172.568V112.024ZM237.851 127.256V135H206.299V89.56H237.275V97.304H215.131V108.248H234.267V115.416H215.131V127.256H237.851ZM241.172 111.96C241.172 109.187 241.662 106.456 242.644 103.768C243.668 101.08 245.14 98.648 247.06 96.472C248.98 94.296 251.326 92.568 254.1 91.288C256.873 89.9653 260.03 89.304 263.572 89.304C267.71 89.304 271.316 90.2213 274.388 92.056C277.46 93.8907 279.742 96.28 281.236 99.224L274.451 103.896C273.684 102.189 272.681 100.845 271.444 99.864C270.206 98.8827 268.862 98.1787 267.412 97.752C266.004 97.3253 264.638 97.112 263.316 97.112C261.097 97.112 259.156 97.56 257.492 98.456C255.87 99.352 254.505 100.525 253.396 101.976C252.286 103.427 251.454 105.048 250.9 106.84C250.388 108.632 250.132 110.424 250.132 112.216C250.132 114.904 250.686 117.421 251.796 119.768C252.905 122.072 254.462 123.949 256.468 125.4C258.473 126.851 260.798 127.576 263.444 127.576C264.809 127.576 266.217 127.341 267.668 126.872C269.161 126.403 270.526 125.656 271.764 124.632C273.001 123.608 273.961 122.285 274.644 120.664L281.876 124.824C280.937 127.085 279.465 129.005 277.46 130.584C275.454 132.12 273.193 133.315 270.676 134.168C268.158 134.979 265.662 135.384 263.188 135.384C259.945 135.384 256.98 134.723 254.292 133.4C251.646 132.035 249.342 130.243 247.38 128.024C245.417 125.763 243.881 123.245 242.772 120.472C241.705 117.656 241.172 114.819 241.172 111.96ZM291.731 89.56L302.931 110.936L314.323 89.56H323.859L307.347 119.128V135H298.579V119L282.131 89.56H291.731ZM323.172 111.96C323.172 109.187 323.662 106.456 324.644 103.768C325.668 101.08 327.14 98.648 329.06 96.472C330.98 94.296 333.326 92.568 336.1 91.288C338.873 89.9653 342.03 89.304 345.572 89.304C349.71 89.304 353.316 90.2213 356.388 92.056C359.46 93.8907 361.742 96.28 363.236 99.224L356.451 103.896C355.684 102.189 354.681 100.845 353.444 99.864C352.206 98.8827 350.862 98.1787 349.412 97.752C348.004 97.3253 346.638 97.112 345.316 97.112C343.097 97.112 341.156 97.56 339.492 98.456C337.87 99.352 336.505 100.525 335.396 101.976C334.286 103.427 333.454 105.048 332.9 106.84C332.388 108.632 332.132 110.424 332.132 112.216C332.132 114.904 332.686 117.421 333.796 119.768C334.905 122.072 336.462 123.949 338.468 125.4C340.473 126.851 342.798 127.576 345.444 127.576C346.809 127.576 348.217 127.341 349.668 126.872C351.161 126.403 352.526 125.656 353.764 124.632C355.001 123.608 355.961 122.285 356.644 120.664L363.876 124.824C362.937 127.085 361.465 129.005 359.46 130.584C357.454 132.12 355.193 133.315 352.676 134.168C350.158 134.979 347.662 135.384 345.188 135.384C341.945 135.384 338.98 134.723 336.292 133.4C333.646 132.035 331.342 130.243 329.38 128.024C327.417 125.763 325.881 123.245 324.772 120.472C323.705 117.656 323.172 114.819 323.172 111.96ZM369.799 135V89.56H378.631V127.256H401.799V135H369.799ZM407.174 135V89.56H416.006V135H407.174ZM434.318 105.816V135H425.486V89.56H432.526L456.014 119.512V89.624H464.846V135H457.486L434.318 105.816ZM493.179 135.32C490.192 135.32 487.397 134.723 484.795 133.528C482.192 132.333 479.888 130.691 477.883 128.6C475.92 126.467 474.384 123.992 473.275 121.176C472.165 118.36 471.611 115.309 471.611 112.024C471.611 108.909 472.165 105.987 473.275 103.256C474.384 100.483 475.941 98.0507 477.947 95.96C479.952 93.8693 482.299 92.2267 484.987 91.032C487.675 89.8373 490.597 89.24 493.755 89.24C497.979 89.24 501.627 90.1573 504.699 91.992C507.771 93.784 510.075 96.1733 511.611 99.16L505.019 104.024C503.867 101.805 502.245 100.099 500.155 98.904C498.107 97.6667 495.867 97.048 493.435 97.048C490.875 97.048 488.613 97.752 486.651 99.16C484.731 100.568 483.216 102.424 482.107 104.728C481.04 107.032 480.507 109.549 480.507 112.28C480.507 115.139 481.083 117.72 482.235 120.024C483.387 122.328 484.965 124.163 486.971 125.528C489.019 126.851 491.344 127.512 493.947 127.512C498.341 127.512 502.309 125.443 505.851 121.304V118.104H496.699V111.64H513.147V135H505.851V129.88C502.181 133.507 497.957 135.32 493.179 135.32Z" fill="#005B2B"/>
</svg>
