<svg width="294" height="79" viewBox="0 0 294 79" fill="none" xmlns="http://www.w3.org/2000/svg">
<path d="M83.38 9.234H86.032V30.756H98.68V33H83.38V9.234ZM109.775 9.234H112.257L121.743 33H119.023L116.473 26.642H105.525L103.009 33H100.289L109.775 9.234ZM115.725 24.398L110.999 12.294L106.307 24.398H115.725ZM132.49 33.51C129.362 33.51 126.993 32.7167 125.384 31.13C123.797 29.5433 123.004 27.3333 123.004 24.5V9.234H125.656V24.704C125.656 26.8573 126.256 28.4667 127.458 29.532C128.659 30.5973 130.336 31.13 132.49 31.13C134.643 31.13 136.32 30.5973 137.522 29.532C138.723 28.4667 139.324 26.8573 139.324 24.704V9.234H141.976V24.5C141.976 27.3333 141.171 29.5433 139.562 31.13C137.975 32.7167 135.618 33.51 132.49 33.51ZM152.398 11.478H144.782V9.234H162.666V11.478H155.05V33H152.398V11.478ZM165.624 9.234H180.924V11.478H168.276V19.978H177.762V22.222H168.276V30.756H180.924V33H165.624V9.234ZM184.575 9.234H187.125L200.215 28.478V9.234H202.867V33H200.317L187.227 13.722V33H184.575V9.234ZM207.178 9.234H217.718C219.78 9.234 221.356 9.778 222.444 10.866C223.532 11.9313 224.076 13.5067 224.076 15.592C224.076 16.816 223.792 17.8813 223.226 18.788C222.659 19.672 221.911 20.3293 220.982 20.76C223.588 21.44 224.892 23.31 224.892 26.37C224.892 27.7073 224.597 28.886 224.008 29.906C223.441 30.9033 222.648 31.674 221.628 32.218C220.63 32.7393 219.52 33 218.296 33H207.178V9.234ZM217.514 19.706C218.783 19.706 219.746 19.366 220.404 18.686C221.084 17.9833 221.424 16.9747 221.424 15.66C221.424 14.164 221.095 13.0987 220.438 12.464C219.78 11.8067 218.715 11.478 217.242 11.478H209.83V19.706H217.514ZM217.718 30.756C219.214 30.756 220.336 30.416 221.084 29.736C221.854 29.056 222.24 27.9113 222.24 26.302C222.24 24.738 221.843 23.6273 221.05 22.97C220.256 22.29 219.021 21.95 217.344 21.95H209.83V30.756H217.718ZM235.1 9.234H237.582L247.068 33H244.348L241.798 26.642H230.85L228.334 33H225.614L235.1 9.234ZM241.05 24.398L236.324 12.294L231.632 24.398H241.05ZM260.662 33.51C258.259 33.51 256.106 33 254.202 31.98C252.321 30.96 250.847 29.5207 249.782 27.662C248.717 25.7807 248.184 23.6047 248.184 21.134C248.184 18.6633 248.717 16.4987 249.782 14.64C250.847 12.7587 252.321 11.308 254.202 10.288C256.106 9.24533 258.259 8.724 260.662 8.724C263.949 8.724 266.669 9.58533 268.822 11.308V13.892C266.782 12.056 264.13 11.138 260.866 11.138C258.939 11.138 257.217 11.546 255.698 12.362C254.179 13.178 252.989 14.3453 252.128 15.864C251.267 17.36 250.836 19.1167 250.836 21.134C250.836 23.1513 251.267 24.9193 252.128 26.438C253.012 27.934 254.213 29.09 255.732 29.906C257.251 30.722 258.962 31.13 260.866 31.13C262.566 31.13 264.085 30.9033 265.422 30.45C266.759 29.9967 267.995 29.2487 269.128 28.206V30.824C267.111 32.6147 264.289 33.51 260.662 33.51ZM272.762 9.234H275.414V19.774H288.81V9.234H291.462V33H288.81V22.018H275.414V33H272.762V9.234ZM83.38 54.234H92.56C95.0307 54.234 96.9007 54.812 98.17 55.968C99.462 57.124 100.108 58.8353 100.108 61.102C100.108 62.8247 99.598 64.2867 98.578 65.488C97.5807 66.6893 96.1867 67.4487 94.396 67.766L100.04 78H97.286L91.71 67.902H86.032V78H83.38V54.234ZM92.22 65.658C93.852 65.658 95.1327 65.2727 96.062 64.502C96.9913 63.7313 97.456 62.598 97.456 61.102C97.456 59.4247 96.9913 58.2347 96.062 57.532C95.1553 56.8293 93.8747 56.478 92.22 56.478H86.032V65.658H92.22ZM103.758 54.234H119.058V56.478H106.41V64.978H115.896V67.222H106.41V75.756H119.058V78H103.758V54.234ZM134.009 78.51C131.606 78.51 129.453 78 127.549 76.98C125.668 75.96 124.194 74.5207 123.129 72.662C122.064 70.7807 121.531 68.6047 121.531 66.134C121.531 63.6633 122.064 61.4987 123.129 59.64C124.194 57.7587 125.668 56.308 127.549 55.288C129.453 54.2453 131.606 53.724 134.009 53.724C137.296 53.724 140.016 54.5853 142.169 56.308V58.892C140.129 57.056 137.477 56.138 134.213 56.138C132.286 56.138 130.564 56.546 129.045 57.362C127.526 58.178 126.336 59.3453 125.475 60.864C124.614 62.36 124.183 64.1167 124.183 66.134C124.183 68.1513 124.614 69.9193 125.475 71.438C126.359 72.934 127.56 74.09 129.079 74.906C130.598 75.722 132.309 76.13 134.213 76.13C135.913 76.13 137.432 75.9033 138.769 75.45C140.106 74.9967 141.342 74.2487 142.475 73.206V75.824C140.458 77.6147 137.636 78.51 134.009 78.51ZM152.537 68.99L143.901 54.234H146.723L153.863 66.576L161.037 54.234H163.825L155.189 68.99V78H152.537V68.99ZM176.359 78.51C173.957 78.51 171.803 78 169.899 76.98C168.018 75.96 166.545 74.5207 165.479 72.662C164.414 70.7807 163.881 68.6047 163.881 66.134C163.881 63.6633 164.414 61.4987 165.479 59.64C166.545 57.7587 168.018 56.308 169.899 55.288C171.803 54.2453 173.957 53.724 176.359 53.724C179.646 53.724 182.366 54.5853 184.519 56.308V58.892C182.479 57.056 179.827 56.138 176.563 56.138C174.637 56.138 172.914 56.546 171.395 57.362C169.877 58.178 168.687 59.3453 167.825 60.864C166.964 62.36 166.533 64.1167 166.533 66.134C166.533 68.1513 166.964 69.9193 167.825 71.438C168.709 72.934 169.911 74.09 171.429 74.906C172.948 75.722 174.659 76.13 176.563 76.13C178.263 76.13 179.782 75.9033 181.119 75.45C182.457 74.9967 183.692 74.2487 184.825 73.206V75.824C182.808 77.6147 179.986 78.51 176.359 78.51ZM188.459 54.234H191.111V75.756H203.759V78H188.459V54.234ZM206.581 54.234H209.233V78H206.581V54.234ZM213.577 54.234H216.127L229.217 73.478V54.234H231.869V78H229.319L216.229 58.722V78H213.577V54.234ZM247.978 78.51C245.576 78.51 243.422 78 241.518 76.98C239.637 75.96 238.164 74.5207 237.098 72.662C236.033 70.7807 235.5 68.6047 235.5 66.134C235.5 63.6633 236.033 61.4987 237.098 59.64C238.164 57.7587 239.637 56.308 241.518 55.288C243.422 54.2453 245.576 53.724 247.978 53.724C251.265 53.724 253.985 54.5853 256.138 56.308V58.892C254.098 57.056 251.446 56.138 248.182 56.138C246.256 56.138 244.533 56.546 243.014 57.362C241.496 58.178 240.306 59.3453 239.444 60.864C238.583 62.36 238.152 64.1167 238.152 66.134C238.152 68.1513 238.583 69.9193 239.444 71.438C240.306 72.934 241.484 74.09 242.98 74.906C244.499 75.722 246.21 76.13 248.114 76.13C249.225 76.13 250.302 76.0053 251.344 75.756C252.387 75.484 253.248 75.1327 253.928 74.702V67.392H248.93V65.148H256.58V75.824C255.47 76.7533 254.2 77.4333 252.772 77.864C251.367 78.2947 249.769 78.51 247.978 78.51Z" fill="#005B2B"/>
<path d="M45.0299 78H1L39.1138 2L77 78H53.2216L39.1138 15.9725L28.3054 58.6735H45.0299V78Z" fill="#005B2B" stroke="#005B2B"/>
</svg>
